{
	"asset":{
		"version":"2.0",
		"generator":"Created using the official Cinema 4D glTF Exporter 1.000x284978"
	},
	"scenes":[{
		"nodes":[0,
		3]
	}],
	"nodes":[{
		"children":[1,
		2],
		"name":"16.21.208А",
		"translation":[0.0,
		9.899445533752442,
		9.418346405029297],
		"rotation":[0.0,
		0.0,
		0.0,
		-1.0],
		"scale":[1.0,
		1.0,
		1.0]
	},
	{
		"name":"16.21.208А-Blurry Black",
		"mesh":0
	},
	{
		"name":"16.21.208А-R Metal",
		"mesh":1
	},
	{
		"name":"MoText",
		"translation":[9.732969284057618,
		0.5085850954055786,
		5.696101188659668],
		"rotation":[0.0,
		0.0,
		0.0,
		-1.0],
		"scale":[1.0,
		1.0,
		1.0],
		"mesh":2
	}],
	"meshes":[{
		"name":"16.21.208А-Blurry Black",
		"primitives":[{
			"attributes":{
				"POSITION":1,
				"NORMAL":2,
				"TEXCOORD_0":3
			},
			"indices":0,
			"material":0
		}]
	},
	{
		"name":"16.21.208А-R Metal",
		"primitives":[{
			"attributes":{
				"POSITION":5,
				"NORMAL":6,
				"TEXCOORD_0":7
			},
			"indices":4,
			"material":1
		}]
	},
	{
		"name":"MoText",
		"primitives":[{
			"attributes":{
				"POSITION":9,
				"NORMAL":10,
				"TEXCOORD_0":11
			},
			"indices":8,
			"material":2
		}]
	}],
	"accessors":[{
		"bufferView":0,
		"type":"SCALAR",
		"componentType":5123,
		"count":130614,
		"byteOffset":0,
		"min":[0],
		"max":[44837]
	},
	{
		"bufferView":1,
		"type":"VEC3",
		"componentType":5126,
		"count":44838,
		"byteOffset":0,
		"min":[-10.498921394348145,
		-10.498921394348145,
		-10.734889030456543],
		"max":[10.498921394348145,
		10.498921394348145,
		10.734889030456543]
	},
	{
		"bufferView":1,
		"type":"VEC3",
		"componentType":5126,
		"count":44838,
		"byteOffset":12,
		"min":[-1.0,
		-1.0,
		-1.0],
		"max":[1.0,
		1.0,
		1.0]
	},
	{
		"bufferView":1,
		"type":"VEC2",
		"componentType":5126,
		"count":44838,
		"byteOffset":24,
		"min":[-0.8491882085800171,
		-0.2401789426803589],
		"max":[1.0,
		1.113325595855713]
	},
	{
		"bufferView":2,
		"type":"SCALAR",
		"componentType":5123,
		"count":408,
		"byteOffset":0,
		"min":[0],
		"max":[137]
	},
	{
		"bufferView":3,
		"type":"VEC3",
		"componentType":5126,
		"count":138,
		"byteOffset":0,
		"min":[-4.529458999633789,
		-4.529458999633789,
		5.664889335632324],
		"max":[4.529458999633789,
		4.529458999633789,
		10.643133163452149]
	},
	{
		"bufferView":3,
		"type":"VEC3",
		"componentType":5126,
		"count":138,
		"byteOffset":12,
		"min":[-0.9999688267707825,
		-0.9999688267707825,
		0.005843750201165676],
		"max":[0.9999688267707825,
		0.9999688267707825,
		0.005843750201165676]
	},
	{
		"bufferView":3,
		"type":"VEC2",
		"componentType":5126,
		"count":138,
		"byteOffset":24,
		"min":[0.0,
		0.0],
		"max":[1.0,
		1.0]
	},
	{
		"bufferView":4,
		"type":"SCALAR",
		"componentType":5123,
		"count":32493,
		"byteOffset":0,
		"min":[0],
		"max":[11478]
	},
	{
		"bufferView":5,
		"type":"VEC3",
		"componentType":5126,
		"count":11479,
		"byteOffset":0,
		"min":[-2.9896466732025148,
		8.881784197001253e-16,
		-13.282720565795899],
		"max":[0.7572392225265503,
		0.17978022992610932,
		10.553762435913086]
	},
	{
		"bufferView":5,
		"type":"VEC3",
		"componentType":5126,
		"count":11479,
		"byteOffset":12,
		"min":[-0.8056213855743408,
		-0.7072134613990784,
		-0.8821976184844971],
		"max":[0.8056216239929199,
		1.0,
		0.8056225776672363]
	},
	{
		"bufferView":5,
		"type":"VEC2",
		"componentType":5126,
		"count":11479,
		"byteOffset":24,
		"min":[0.0,
		0.0],
		"max":[1.0,
		1.0]
	}],
	"bufferViews":[{
		"buffer":0,
		"byteOffset":0,
		"byteLength":261228,
		"target":34963
	},
	{
		"buffer":0,
		"byteOffset":261228,
		"byteLength":1434816,
		"target":34962,
		"byteStride":32
	},
	{
		"buffer":1,
		"byteOffset":0,
		"byteLength":816,
		"target":34963
	},
	{
		"buffer":1,
		"byteOffset":816,
		"byteLength":4416,
		"target":34962,
		"byteStride":32
	},
	{
		"buffer":2,
		"byteOffset":0,
		"byteLength":64986,
		"target":34963
	},
	{
		"buffer":2,
		"byteOffset":64988,
		"byteLength":367328,
		"target":34962,
		"byteStride":32
	}],
	"buffers":[{
		"uri":"data:application/octet-stream;base64,",
		"byteLength":1696044
	},
	{
		"uri":"data:application/octet-stream;base64,",
		"byteLength":5232
	},
	{
		"uri":"data:application/octet-stream;base64,",
		"byteLength":432316
	}],
	"materials":[{
		"pbrMetallicRoughness":{
			"baseColorFactor":[1.0,
			1.0,
			1.0,
			1.0],
			"metallicFactor":1.0,
			"roughnessFactor":1.0
		},
		"emissiveFactor":[0.0,
		0.0,
		0.0],
		"alphaMode":"OPAQUE",
		"doubleSided":false,
		"name":""
	},
	{
		"pbrMetallicRoughness":{
			"baseColorFactor":[1.0,
			1.0,
			1.0,
			1.0],
			"metallicFactor":1.0,
			"roughnessFactor":1.0
		},
		"emissiveFactor":[0.0,
		0.0,
		0.0],
		"alphaMode":"OPAQUE",
		"doubleSided":false,
		"name":""
	},
	{
		"pbrMetallicRoughness":{
			"baseColorFactor":[0.29999998211860659,
			0.29999998211860659,
			0.29999998211860659,
			1.0],
			"metallicFactor":0.29999998211860659,
			"roughnessFactor":0.0
		},
		"emissiveFactor":[0.0,
		0.0,
		0.0],
		"alphaMode":"OPAQUE",
		"doubleSided":false,
		"name":"Цветной металл 2"
	}]
}